HIERARCHY
ROOT Hips
{
 OFFSET 0.000000 0.000000 0.000000
 CHANNELS 6 Xposition Yposition Zposition Yrotation Xrotation Zrotation
 JOINT Chest
 {
  OFFSET 0.000000 9.585900 0.002600
  CHANNELS 3 Yrotation Xrotation Zrotation
  JOINT Chest2
  {
   OFFSET 0.000000 9.601200 -0.005300
   CHANNELS 3 Yrotation Xrotation Zrotation
   JOINT Chest3
   {
    OFFSET 0.000000 9.561800 0.000000
    CHANNELS 3 Yrotation Xrotation Zrotation
    JOINT Chest4
    {
     OFFSET 0.000000 9.552100 0.000000
     CHANNELS 3 Yrotation Xrotation Zrotation
     JOINT Neck
     {
      OFFSET 0.000000 14.453000 0.000000
      CHANNELS 3 Yrotation Xrotation Zrotation
      JOINT Head
      {
       OFFSET 0.000000 8.936500 -0.011300
       CHANNELS 3 Yrotation Xrotation Zrotation
       End Site
       {
        OFFSET 0.000000 17.073600 -0.006000
       }
      }
     }
     JOINT RightCollar
     {
      OFFSET -2.921100 9.558500 0.000000
      CHANNELS 3 Yrotation Xrotation Zrotation
      JOINT RightShoulder
      {
       OFFSET -13.519700 0.000000 0.000000
       CHANNELS 3 Yrotation Xrotation Zrotation
       JOINT RightElbow
       {
        OFFSET 0.000000 -29.696600 0.000000
        CHANNELS 3 Yrotation Xrotation Zrotation
        JOINT RightWrist
        {
         OFFSET 0.000000 -24.004700 0.000000
         CHANNELS 3 Yrotation Xrotation Zrotation
         End Site
         {
          OFFSET 0.000000 -17.728500 0.000000
         }
        }
       }
      }
     }
     JOINT LeftCollar
     {
      OFFSET 2.921100 9.558500 0.000000
      CHANNELS 3 Yrotation Xrotation Zrotation
      JOINT LeftShoulder
      {
       OFFSET 13.519700 0.000000 0.000000
       CHANNELS 3 Yrotation Xrotation Zrotation
       JOINT LeftElbow
       {
        OFFSET 0.000000 -29.696600 0.000000
        CHANNELS 3 Yrotation Xrotation Zrotation
        JOINT LeftWrist
        {
         OFFSET 0.000000 -24.004700 0.000000
         CHANNELS 3 Yrotation Xrotation Zrotation
         End Site
         {
          OFFSET 0.000000 -17.728500 0.000000
         }
        }
       }
      }
     }
    }
   }
  }
 }
 JOINT RightHip
 {
  OFFSET -7.771700 -0.012900 -0.001300
  CHANNELS 3 Yrotation Xrotation Zrotation
  JOINT RightKnee
  {
   OFFSET 0.000000 -40.869800 0.001200
   CHANNELS 3 Yrotation Xrotation Zrotation
   JOINT RightAnkle
   {
    OFFSET 0.000000 -39.717900 0.002100
    CHANNELS 3 Yrotation Xrotation Zrotation
    JOINT RightToe
    {
     OFFSET 0.000000 -4.965400 11.033500
     CHANNELS 3 Yrotation Xrotation Zrotation
     End Site
     {
      OFFSET 0.000000 -1.423100 5.872300
     }
    }
   }
  }
 }
 JOINT LeftHip
 {
  OFFSET 7.771700 -0.012900 -0.001300
  CHANNELS 3 Yrotation Xrotation Zrotation
  JOINT LeftKnee
  {
   OFFSET 0.000000 -40.869800 0.001200
   CHANNELS 3 Yrotation Xrotation Zrotation
   JOINT LeftAnkle
   {
    OFFSET 0.000000 -39.717900 0.002100
    CHANNELS 3 Yrotation Xrotation Zrotation
    JOINT LeftToe
    {
     OFFSET 0.000000 -4.965400 11.033500
     CHANNELS 3 Yrotation Xrotation Zrotation
     End Site
     {
      OFFSET 0.000000 -1.423100 5.872300
     }
    }
   }
  }
 }
}
MOTION
Frames: 7
Frame Time: 0.008333
0.000000 85.388000 0.000000 0.000000 -5.767877 0.000000 0.000000 11.653817 0.000000 0.000000 -5.885947 0.000000 0.000000 -0.000000 0.000000 0.000000 -0.000000 0.000000 0.000000 12.528835 0.000000 0.000000 0.711642 0.000000 0.000000 -0.000000 0.000000 0.000000 0.000000 -90.000000 0.000000 -2.309062 0.000000 0.000000 2.309062 0.000000 0.000000 -0.000000 0.000000 0.000000 -0.000000 90.000000 0.000000 -2.309062 0.000000 0.000000 2.309062 0.000000 0.000000 8.520406 0.000000 0.000000 1.905762 0.000000 -0.000000 -4.658285 0.000000 0.000000 -0.000000 0.000000 0.000000 8.520406 0.000000 0.000000 1.905762 0.000000 -0.000000 -4.658285 0.000000 0.000000 -0.000000 0.000000
-216.969357 57.876997 25.417534 173.115889 -46.112718 -3.048191 5.122954 22.348944 3.434553 2.638207 12.804545 1.749532 3.391077 15.991734 2.312204 2.635363 12.805478 1.751415 4.607383 15.855901 1.208827 8.141276 -6.297653 0.596576 2.167970 2.559489 0.152301 -3.443819 -14.853648 -7.485518 -35.200870 -22.215770 88.361180 -11.879378 1.250507 -30.363318 -10.041026 -0.252171 0.433583 3.495397 -11.950860 9.646463 30.395717 -20.466318 -86.676063 13.024685 -4.599337 14.869542 4.862460 -26.237518 -0.982089 -38.931251 73.819880 -41.417792 4.626996 -13.455281 10.201183 0.014692 -0.174155 0.017438 -5.401543 -24.767297 9.485109 57.541758 78.574389 57.657758 5.909989 -15.683758 -18.274619 0.068086 0.157433 0.023133
-216.970101 57.876550 25.417431 173.125034 -46.118146 -3.046532 5.123858 22.354557 3.443501 2.634899 12.805431 1.751170 3.385057 15.992405 2.309868 2.633650 12.806407 1.753034 4.691109 16.059814 1.213813 8.282347 -5.916290 0.585434 2.163330 2.558126 0.133831 -3.441921 -14.869427 -7.473451 -35.194950 -22.204141 88.346706 -11.887295 1.246496 -30.375258 -10.027704 -0.244587 0.438546 3.482738 -11.988098 9.636285 30.376778 -20.449000 -86.661535 13.034390 -4.614077 14.877795 4.858427 -26.231070 -0.987924 -38.947713 73.820100 -41.441811 4.631579 -13.462108 10.207828 0.010229 -0.171906 0.014737 -5.402040 -24.762181 9.473129 57.546157 78.568580 57.666633 5.906819 -15.685013 -18.277589 0.076269 0.156807 0.027183
-216.970568 57.875818 25.417966 173.131684 -46.122729 -3.045624 5.125003 22.357152 3.451323 2.633234 12.806751 1.753744 3.376269 15.994233 2.301740 2.633206 12.806754 1.753648 4.771119 16.262375 1.229779 8.399471 -5.539416 0.594181 2.160038 2.557863 0.129588 -3.439213 -14.875274 -7.471760 -35.191094 -22.199284 88.345299 -11.889517 1.243356 -30.380357 -10.011198 -0.230058 0.448134 3.470529 -12.026474 9.628697 30.360189 -20.434730 -86.649395 13.045285 -4.637017 14.879296 4.856041 -26.225724 -0.992843 -38.953664 73.819538 -41.450831 4.635015 -13.467040 10.210260 0.008525 -0.168603 0.013297 -5.410841 -24.756656 9.467907 57.549891 78.564573 57.666006 5.906150 -15.686188 -18.278783 0.077438 0.159108 0.027816
-216.973415 57.876129 25.417516 173.139464 -46.137888 -3.031621 5.116770 22.369075 3.441004 2.634370 12.808439 1.755654 3.377893 15.996156 2.304273 2.634384 12.808477 1.755691 4.828076 16.459927 1.244312 8.496507 -5.175538 0.620641 2.146501 2.558181 0.122117 -3.438354 -14.895119 -7.469767 -35.186068 -22.181729 88.341394 -11.890429 1.244695 -30.388196 -10.005723 -0.213396 0.450446 3.457152 -12.059419 9.622979 30.344597 -20.426454 -86.640746 13.053025 -4.654617 14.873701 4.860518 -26.208624 -1.012715 -38.970359 73.820495 -41.478181 4.642426 -13.476282 10.221670 -0.002152 -0.166484 0.008735 -5.414221 -24.742738 9.446117 57.560506 78.561325 57.671442 5.900783 -15.681789 -18.280021 0.081001 0.155157 0.028877
-216.974906 57.874960 25.419459 173.137221 -46.141475 -3.021408 5.130192 22.363519 3.448797 2.635731 12.812126 1.756828 3.379469 16.000870 2.305636 2.627478 12.811302 1.757891 4.872958 16.643530 1.265208 8.575177 -4.832740 0.660663 2.129830 2.558330 0.125782 -3.440043 -14.935274 -7.483501 -35.166115 -22.148608 88.334264 -11.899379 1.243270 -30.383446 -10.010832 -0.207481 0.452258 3.449938 -12.073227 9.620468 30.342945 -20.425779 -86.641487 13.056508 -4.657857 14.874212 4.868107 -26.210024 -1.018028 -38.992923 73.821820 -41.506675 4.636597 -13.474833 10.224618 -0.011860 -0.169542 0.007336 -5.419729 -24.739604 9.438154 57.580300 78.558347 57.684070 5.900697 -15.681755 -18.282917 0.081518 0.154730 0.030568
-216.977080 57.874008 25.421880 173.139936 -46.147372 -3.012365 5.134029 22.366657 3.444474 2.630823 12.814288 1.755466 3.383042 16.001858 2.306105 2.640093 12.815737 1.756164 4.904548 16.811193 1.297137 8.631681 -4.519497 0.710969 2.090270 2.582498 0.146725 -3.417941 -14.971564 -7.497887 -35.163466 -22.140387 88.346167 -11.903009 1.249977 -30.368381 -10.020862 -0.202158 0.463568 3.446702 -12.097535 9.617985 30.328261 -20.415690 -86.634779 13.056008 -4.677287 14.864594 4.875068 -26.205743 -1.028953 -39.002535 73.820339 -41.520172 4.632146 -13.472978 10.232281 -0.014550 -0.169169 0.005824 -5.425288 -24.733713 9.427067 57.592049 78.556021 57.689222 5.895668 -15.686752 -18.282972 0.081758 0.155321 0.032308
